# Blender 4.2.2 LTS
# www.blender.org
mtllib sapin.mtl
o Sapin
v -0.382363 -0.347479 0.382363
v -0.382363 0.982181 0.382363
v -0.382363 -0.347479 -0.382363
v -0.382363 0.982181 -0.382363
v 0.382363 -0.347479 0.382363
v 0.382363 0.982181 0.382363
v 0.382363 -0.347479 -0.382363
v 0.382363 0.982181 -0.382363
v -0.525749 -0.347479 -0.000000
v -0.525749 0.982181 -0.000000
v 0.000000 -0.347479 -0.525749
v 0.000000 0.982181 -0.525749
v 0.525749 -0.347479 -0.000000
v 0.525749 0.982181 -0.000000
v 0.000000 -0.347479 0.525749
v 0.000000 0.982181 0.525749
v 0.000000 -0.347479 0.000000
v 0.000000 0.982181 0.000000
vn -0.9363 -0.0000 -0.3511
vn -0.3511 -0.0000 -0.9363
vn 0.3511 -0.0000 -0.9363
vn 0.9363 -0.0000 -0.3511
vn 0.9363 -0.0000 0.3511
vn 0.3511 -0.0000 0.9363
vn -0.3511 -0.0000 0.9363
vn -0.0000 -1.0000 -0.0000
vn -0.0000 1.0000 -0.0000
vn -0.9363 -0.0000 0.3511
vt 0.250043 0.125065
vt 0.500000 0.125065
vt 0.500000 0.250043
vt 0.250043 0.250043
vt 0.500000 0.375022
vt 0.250043 0.375022
vt 0.500000 0.500000
vt 0.250043 0.500000
vt 0.500000 0.624978
vt 0.250043 0.624978
vt 0.500000 0.749957
vt 0.250043 0.749957
vt 0.500000 0.874935
vt 0.250043 0.874935
vt 0.500000 0.999913
vt 0.250043 0.999913
vt 0.000087 0.500000
vt 0.125065 0.500000
vt 0.125065 0.624978
vt 0.000087 0.624978
vt 0.125065 0.749957
vt 0.000087 0.749957
vt 0.624978 0.500000
vt 0.624978 0.624978
vt 0.749957 0.500000
vt 0.749957 0.624978
vt 0.749957 0.749957
vt 0.624978 0.749957
vt 0.250043 0.000087
vt 0.500000 0.000087
s 0
usemtl Material.001
f 9/1/1 10/2/1 4/3/1 3/4/1
f 4/3/2 12/5/2 11/6/2 3/4/2
f 11/6/3 12/5/3 8/7/3 7/8/3
f 8/7/4 14/9/4 13/10/4 7/8/4
f 13/10/5 14/9/5 6/11/5 5/12/5
f 6/11/6 16/13/6 15/14/6 5/12/6
f 15/14/7 16/13/7 2/15/7 1/16/7
f 3/17/8 11/18/8 17/19/8 9/20/8
f 11/18/8 7/8/8 13/10/8 17/19/8
f 17/19/8 13/10/8 5/12/8 15/21/8
f 9/20/8 17/19/8 15/21/8 1/22/8
f 8/7/9 12/23/9 18/24/9 14/9/9
f 12/23/9 4/25/9 10/26/9 18/24/9
f 18/24/9 10/26/9 2/27/9 16/28/9
f 14/9/9 18/24/9 16/28/9 6/11/9
f 1/29/10 2/30/10 10/2/10 9/1/10
o Cone.006
v 0.000000 0.610583 -1.458839
v 0.937724 0.610583 -1.117536
v 1.436676 0.610583 -0.253325
v 1.263392 0.610583 0.729420
v 0.498952 0.610583 1.370861
v -0.498952 0.610583 1.370861
v -1.263392 0.610583 0.729420
v -1.436676 0.610583 -0.253325
v -0.937724 0.610583 -1.117536
v 0.000000 2.302731 -0.000000
vn 0.2658 0.6295 -0.7302
vn 0.6729 0.6295 -0.3885
vn 0.7652 0.6295 0.1349
vn 0.4995 0.6295 0.5952
vn -0.0000 0.6295 0.7770
vn -0.4995 0.6295 0.5952
vn -0.7652 0.6295 0.1349
vn -0.0000 -1.0000 -0.0000
vn -0.6729 0.6295 -0.3885
vn -0.2658 0.6295 -0.7302
vt 0.250000 0.490000
vt 0.250000 0.250000
vt 0.404269 0.433851
vt 0.486354 0.291676
vt 0.457846 0.130000
vt 0.332085 0.024474
vt 0.167915 0.024474
vt 0.042154 0.130000
vt 0.013646 0.291676
vt 0.750000 0.490000
vt 0.904269 0.433851
vt 0.986354 0.291676
vt 0.957846 0.130000
vt 0.832085 0.024474
vt 0.667915 0.024474
vt 0.542154 0.130000
vt 0.513646 0.291676
vt 0.595731 0.433851
vt 0.095731 0.433851
s 0
usemtl Sapin
f 19/31/11 28/32/11 20/33/11
f 20/33/12 28/32/12 21/34/12
f 21/34/13 28/32/13 22/35/13
f 22/35/14 28/32/14 23/36/14
f 23/36/15 28/32/15 24/37/15
f 24/37/16 28/32/16 25/38/16
f 25/38/17 28/32/17 26/39/17
f 19/40/18 20/41/18 21/42/18 22/43/18 23/44/18 24/45/18 25/46/18 26/47/18 27/48/18
f 26/39/19 28/32/19 27/49/19
f 27/49/20 28/32/20 19/31/20
o Cone.007
v 0.000000 1.491601 -1.289887
v 0.829123 1.491601 -0.988111
v 1.270290 1.491601 -0.223986
v 1.117075 1.491601 0.644943
v 0.441167 1.491601 1.212097
v -0.441167 1.491601 1.212097
v -1.117075 1.491601 0.644943
v -1.270290 1.491601 -0.223986
v -0.829123 1.491601 -0.988111
v 0.000000 2.987775 -0.000000
vn 0.2658 0.6295 -0.7302
vn 0.6729 0.6295 -0.3885
vn 0.7652 0.6295 0.1349
vn 0.4995 0.6295 0.5952
vn -0.0000 0.6295 0.7770
vn -0.4995 0.6295 0.5952
vn -0.7652 0.6295 0.1349
vn -0.0000 -1.0000 -0.0000
vn -0.6729 0.6295 -0.3885
vn -0.2658 0.6295 -0.7302
vt 0.250000 0.490000
vt 0.250000 0.250000
vt 0.404269 0.433851
vt 0.486354 0.291676
vt 0.457846 0.130000
vt 0.332085 0.024474
vt 0.167915 0.024474
vt 0.042154 0.130000
vt 0.013646 0.291676
vt 0.750000 0.490000
vt 0.904269 0.433851
vt 0.986354 0.291676
vt 0.957846 0.130000
vt 0.832085 0.024474
vt 0.667915 0.024474
vt 0.542154 0.130000
vt 0.513646 0.291676
vt 0.595731 0.433851
vt 0.095731 0.433851
s 0
usemtl Sapin
f 29/50/21 38/51/21 30/52/21
f 30/52/22 38/51/22 31/53/22
f 31/53/23 38/51/23 32/54/23
f 32/54/24 38/51/24 33/55/24
f 33/55/25 38/51/25 34/56/25
f 34/56/26 38/51/26 35/57/26
f 35/57/27 38/51/27 36/58/27
f 29/59/28 30/60/28 31/61/28 32/62/28 33/63/28 34/64/28 35/65/28 36/66/28 37/67/28
f 36/58/29 38/51/29 37/68/29
f 37/68/30 38/51/30 29/50/30
o Cone.008
v 0.000000 2.269435 -1.077863
v 0.692837 2.269435 -0.825691
v 1.061488 2.269435 -0.187169
v 0.933457 2.269435 0.538932
v 0.368651 2.269435 1.012860
v -0.368651 2.269435 1.012860
v -0.933457 2.269435 0.538932
v -1.061488 2.269435 -0.187169
v -0.692837 2.269435 -0.825691
v 0.000000 3.694877 -0.000000
vn 0.2788 0.5792 -0.7660
vn 0.7060 0.5792 -0.4076
vn 0.8028 0.5792 0.1416
vn 0.5240 0.5792 0.6245
vn -0.0000 0.5792 0.8152
vn -0.5240 0.5792 0.6245
vn -0.8028 0.5792 0.1416
vn -0.0000 -1.0000 -0.0000
vn -0.7060 0.5792 -0.4076
vn -0.2788 0.5792 -0.7660
vt 0.250000 0.490000
vt 0.250000 0.250000
vt 0.404269 0.433851
vt 0.486354 0.291676
vt 0.457846 0.130000
vt 0.332085 0.024474
vt 0.167915 0.024474
vt 0.042154 0.130000
vt 0.013646 0.291676
vt 0.750000 0.490000
vt 0.904269 0.433851
vt 0.986354 0.291676
vt 0.957846 0.130000
vt 0.832085 0.024474
vt 0.667915 0.024474
vt 0.542154 0.130000
vt 0.513646 0.291676
vt 0.595731 0.433851
vt 0.095731 0.433851
s 0
usemtl Sapin
f 39/69/31 48/70/31 40/71/31
f 40/71/32 48/70/32 41/72/32
f 41/72/33 48/70/33 42/73/33
f 42/73/34 48/70/34 43/74/34
f 43/74/35 48/70/35 44/75/35
f 44/75/36 48/70/36 45/76/36
f 45/76/37 48/70/37 46/77/37
f 39/78/38 40/79/38 41/80/38 42/81/38 43/82/38 44/83/38 45/84/38 46/85/38 47/86/38
f 46/77/39 48/70/39 47/87/39
f 47/87/40 48/70/40 39/69/40
